<svg width="20" height="14" viewBox="0 0 20 14" fill="none" xmlns="http://www.w3.org/2000/svg">
<path d="M10.8334 11.2084C11.4445 10.9167 12.0591 10.698 12.6771 10.5521C13.2952 10.4063 13.9306 10.3334 14.5834 10.3334C15.0834 10.3334 15.573 10.375 16.0521 10.4584C16.5313 10.5417 17.0139 10.6667 17.5 10.8334V2.58337C17.0417 2.38893 16.566 2.2431 16.073 2.14587C15.5799 2.04865 15.0834 2.00004 14.5834 2.00004C13.9306 2.00004 13.2848 2.08337 12.6459 2.25004C12.007 2.41671 11.4028 2.66671 10.8334 3.00004V11.2084ZM10 13.2292C9.8056 13.2292 9.62157 13.2049 9.44796 13.1563C9.27435 13.1077 9.11115 13.0417 8.95837 12.9584C8.41671 12.6389 7.84726 12.3993 7.25004 12.2396C6.65282 12.0799 6.04171 12 5.41671 12C4.83337 12 4.26046 12.0764 3.69796 12.2292C3.13546 12.382 2.59726 12.5973 2.08337 12.875C1.79171 13.0278 1.51046 13.0209 1.23962 12.8542C0.968791 12.6875 0.833374 12.4445 0.833374 12.125V2.08337C0.833374 1.9306 0.871568 1.78476 0.947957 1.64587C1.02435 1.50699 1.13893 1.40282 1.29171 1.33337C1.94449 1.01393 2.61462 0.767402 3.30212 0.593791C3.98962 0.42018 4.69449 0.333374 5.41671 0.333374C6.22226 0.333374 7.01046 0.437541 7.78129 0.645874C8.55212 0.854207 9.29171 1.16671 10 1.58337C10.7084 1.16671 11.448 0.854207 12.2188 0.645874C12.9896 0.437541 13.7778 0.333374 14.5834 0.333374C15.3056 0.333374 16.0105 0.42018 16.698 0.593791C17.3855 0.767402 18.0556 1.01393 18.7084 1.33337C18.8612 1.40282 18.9757 1.50699 19.0521 1.64587C19.1285 1.78476 19.1667 1.9306 19.1667 2.08337V12.125C19.1667 12.4445 19.0313 12.6875 18.7605 12.8542C18.4896 13.0209 18.2084 13.0278 17.9167 12.875C17.4028 12.5973 16.8646 12.382 16.3021 12.2292C15.7396 12.0764 15.1667 12 14.5834 12C13.9584 12 13.3473 12.0799 12.75 12.2396C12.1528 12.3993 11.5834 12.6389 11.0417 12.9584C10.8889 13.0417 10.7257 13.1077 10.5521 13.1563C10.3785 13.2049 10.1945 13.2292 10 13.2292ZM11.6667 4.31254C11.6667 4.18754 11.7118 4.05907 11.8021 3.92712C11.8924 3.79518 11.9931 3.70837 12.1042 3.66671C12.507 3.52782 12.9098 3.42365 13.3125 3.35421C13.7153 3.28476 14.1389 3.25004 14.5834 3.25004C14.8612 3.25004 15.1355 3.2674 15.4063 3.30212C15.6771 3.33685 15.9445 3.38199 16.2084 3.43754C16.3334 3.46532 16.441 3.53476 16.5313 3.64587C16.6216 3.75699 16.6667 3.88199 16.6667 4.02087C16.6667 4.25699 16.5903 4.4306 16.4375 4.54171C16.2848 4.65282 16.0903 4.6806 15.8542 4.62504C15.6598 4.58337 15.4549 4.55212 15.2396 4.53129C15.0243 4.51046 14.8056 4.50004 14.5834 4.50004C14.2223 4.50004 13.8681 4.53476 13.5209 4.60421C13.1737 4.67365 12.8403 4.76393 12.5209 4.87504C12.2709 4.97226 12.066 4.96532 11.9063 4.85421C11.7466 4.7431 11.6667 4.56254 11.6667 4.31254ZM11.6667 8.89587C11.6667 8.77087 11.7118 8.6424 11.8021 8.51046C11.8924 8.37851 11.9931 8.29171 12.1042 8.25004C12.507 8.11115 12.9098 8.00699 13.3125 7.93754C13.7153 7.8681 14.1389 7.83337 14.5834 7.83337C14.8612 7.83337 15.1355 7.85074 15.4063 7.88546C15.6771 7.92018 15.9445 7.96532 16.2084 8.02087C16.3334 8.04865 16.441 8.1181 16.5313 8.22921C16.6216 8.34032 16.6667 8.46532 16.6667 8.60421C16.6667 8.84032 16.5903 9.01393 16.4375 9.12504C16.2848 9.23615 16.0903 9.26393 15.8542 9.20837C15.6598 9.16671 15.4549 9.13546 15.2396 9.11462C15.0243 9.09379 14.8056 9.08337 14.5834 9.08337C14.2223 9.08337 13.8681 9.11462 13.5209 9.17712C13.1737 9.23962 12.8403 9.32643 12.5209 9.43754C12.2709 9.53476 12.066 9.53129 11.9063 9.42712C11.7466 9.32296 11.6667 9.14587 11.6667 8.89587ZM11.6667 6.60421C11.6667 6.47921 11.7118 6.35074 11.8021 6.21879C11.8924 6.08685 11.9931 6.00004 12.1042 5.95837C12.507 5.81949 12.9098 5.71532 13.3125 5.64587C13.7153 5.57643 14.1389 5.54171 14.5834 5.54171C14.8612 5.54171 15.1355 5.55907 15.4063 5.59379C15.6771 5.62851 15.9445 5.67365 16.2084 5.72921C16.3334 5.75699 16.441 5.82643 16.5313 5.93754C16.6216 6.04865 16.6667 6.17365 16.6667 6.31254C16.6667 6.54865 16.5903 6.72226 16.4375 6.83337C16.2848 6.94449 16.0903 6.97226 15.8542 6.91671C15.6598 6.87504 15.4549 6.84379 15.2396 6.82296C15.0243 6.80212 14.8056 6.79171 14.5834 6.79171C14.2223 6.79171 13.8681 6.82643 13.5209 6.89587C13.1737 6.96532 12.8403 7.0556 12.5209 7.16671C12.2709 7.26393 12.066 7.25699 11.9063 7.14587C11.7466 7.03476 11.6667 6.85421 11.6667 6.60421Z" fill="url(#paint0_linear_27_3)" fill-opacity="0.7"/>
<defs>
<linearGradient id="paint0_linear_27_3" x1="10" y1="0.333374" x2="10" y2="13.2292" gradientUnits="userSpaceOnUse">
<stop stop-color="#BD00FF"/>
<stop offset="1" stop-color="#540097"/>
</linearGradient>
</defs>
</svg>
