<svg width="19" height="18" viewBox="0 0 19 18" fill="none" xmlns="http://www.w3.org/2000/svg">
<path d="M12.5834 14.7916L11.8542 16.8125C11.7987 16.9652 11.7014 17.0902 11.5625 17.1875C11.4237 17.2847 11.2709 17.3333 11.1042 17.3333C10.8264 17.3333 10.6007 17.2187 10.4271 16.9895C10.2535 16.7604 10.2223 16.5069 10.3334 16.2291L13.5 7.85413C13.5695 7.70135 13.6737 7.57635 13.8125 7.47913C13.9514 7.3819 14.1042 7.33329 14.2709 7.33329H14.8959C15.0625 7.33329 15.2153 7.3819 15.3542 7.47913C15.4931 7.57635 15.5973 7.70135 15.6667 7.85413L18.8334 16.25C18.9445 16.5138 18.9167 16.7604 18.75 16.9895C18.5834 17.2187 18.3612 17.3333 18.0834 17.3333C17.9028 17.3333 17.7466 17.2812 17.6146 17.177C17.4827 17.0729 17.382 16.9375 17.3125 16.7708L16.625 14.7916H12.5834ZM13.0834 13.3333H16.0834L14.625 9.20829H14.5417L13.0834 13.3333ZM7.50004 10.6666L3.91671 14.25C3.76393 14.4027 3.56949 14.4791 3.33337 14.4791C3.09726 14.4791 2.90282 14.4027 2.75004 14.25C2.59726 14.0972 2.52087 13.9027 2.52087 13.6666C2.52087 13.4305 2.59726 13.2361 2.75004 13.0833L6.37504 9.45829C5.84726 8.87496 5.38546 8.27079 4.98962 7.64579C4.59379 7.02079 4.25004 6.36107 3.95837 5.66663H5.70837C5.95837 6.16663 6.22574 6.61801 6.51046 7.02079C6.79518 7.42357 7.13893 7.84718 7.54171 8.29163C8.15282 7.62496 8.65976 6.94093 9.06254 6.23954C9.46532 5.53815 9.8056 4.79163 10.0834 3.99996H1.66671C1.4306 3.99996 1.23268 3.9201 1.07296 3.76038C0.913235 3.60065 0.833374 3.40274 0.833374 3.16663C0.833374 2.93051 0.913235 2.7326 1.07296 2.57288C1.23268 2.41315 1.4306 2.33329 1.66671 2.33329H6.66671V1.49996C6.66671 1.26385 6.74657 1.06593 6.90629 0.906209C7.06601 0.746487 7.26393 0.666626 7.50004 0.666626C7.73615 0.666626 7.93407 0.746487 8.09379 0.906209C8.25351 1.06593 8.33337 1.26385 8.33337 1.49996V2.33329H13.3334C13.5695 2.33329 13.7674 2.41315 13.9271 2.57288C14.0868 2.7326 14.1667 2.93051 14.1667 3.16663C14.1667 3.40274 14.0868 3.60065 13.9271 3.76038C13.7674 3.9201 13.5695 3.99996 13.3334 3.99996H11.75C11.4584 4.98607 11.0625 5.9444 10.5625 6.87496C10.0625 7.80551 9.44449 8.68051 8.70837 9.49996L10.7084 11.5416L10.0834 13.25L7.50004 10.6666Z" fill="url(#paint0_linear_27_5)" fill-opacity="0.7"/>
<defs>
<linearGradient id="paint0_linear_27_5" x1="9.86671" y1="0.666626" x2="9.86671" y2="17.3333" gradientUnits="userSpaceOnUse">
<stop stop-color="#BD00FF"/>
<stop offset="1" stop-color="#540097"/>
</linearGradient>
</defs>
</svg>
