<svg width="144" height="46" viewBox="0 0 144 46" fill="none" xmlns="http://www.w3.org/2000/svg">
<path d="M9.65625 0.875H15.2344L19.3828 25.8594L32.2031 0.875H38.25L20.3906 35H15.7031L9.65625 0.875ZM6.39844 0.875H12.2109L9 25.6016L7.33594 35H0.492188L6.39844 0.875ZM35.4375 0.875H41.2734L35.3672 35H28.4766L30.2344 25.0156L35.4375 0.875Z" fill="#141414"/>
<path d="M55.2188 29.2812L57 17.9141C57.0781 17.2266 57.0469 16.5859 56.9062 15.9922C56.7656 15.3984 56.4766 14.9297 56.0391 14.5859C55.6172 14.2266 55.0156 14.0312 54.2344 14C53.5312 13.9844 52.8984 14.1094 52.3359 14.375C51.7891 14.625 51.3359 14.9922 50.9766 15.4766C50.6172 15.9453 50.3672 16.5078 50.2266 17.1641L43.6172 17.2109C43.6953 15.8047 44.0859 14.5938 44.7891 13.5781C45.5078 12.5469 46.4141 11.7031 47.5078 11.0469C48.6016 10.3906 49.7891 9.90625 51.0703 9.59375C52.3672 9.28125 53.6328 9.14062 54.8672 9.17188C56.6328 9.20312 58.2031 9.57031 59.5781 10.2734C60.9688 10.9766 62.0312 11.9844 62.7656 13.2969C63.5156 14.5938 63.7969 16.1719 63.6094 18.0312L61.8516 28.9062C61.7109 29.8125 61.6016 30.7656 61.5234 31.7656C61.4453 32.75 61.5859 33.6875 61.9453 34.5781L61.8984 35L55.4297 35.0234C55.1328 34.1016 54.9844 33.1562 54.9844 32.1875C55 31.2031 55.0781 30.2344 55.2188 29.2812ZM57.75 19.5547L57.1172 23.375L53.7656 23.3516C53.0938 23.3672 52.4219 23.4609 51.75 23.6328C51.0938 23.7891 50.4844 24.0391 49.9219 24.3828C49.3594 24.7109 48.8906 25.1406 48.5156 25.6719C48.1562 26.2031 47.9297 26.8516 47.8359 27.6172C47.7578 28.1641 47.8125 28.6562 48 29.0938C48.1875 29.5156 48.4766 29.8516 48.8672 30.1016C49.2734 30.3516 49.7578 30.4844 50.3203 30.5C51.1172 30.5156 51.8984 30.3672 52.6641 30.0547C53.4297 29.7266 54.0938 29.2656 54.6562 28.6719C55.2188 28.0781 55.6094 27.3906 55.8281 26.6094L57.2344 29.5391C56.8594 30.4141 56.3828 31.2188 55.8047 31.9531C55.2422 32.6875 54.5938 33.3281 53.8594 33.875C53.125 34.4062 52.3203 34.8125 51.4453 35.0938C50.5703 35.3906 49.6328 35.5312 48.6328 35.5156C47.2422 35.4844 45.9609 35.1562 44.7891 34.5312C43.6328 33.8906 42.7109 33.0234 42.0234 31.9297C41.3516 30.8203 41.0469 29.5312 41.1094 28.0625C41.1719 26.4062 41.5859 25.0312 42.3516 23.9375C43.1172 22.8281 44.1016 21.9531 45.3047 21.3125C46.5234 20.6719 47.8438 20.2188 49.2656 19.9531C50.7031 19.6719 52.125 19.5312 53.5312 19.5312L57.75 19.5547Z" fill="#141414"/>
<path d="M85.7344 9.64062H91.7812L87.5859 34.1328C87.2734 36.4609 86.5 38.4453 85.2656 40.0859C84.0312 41.7266 82.4609 42.9688 80.5547 43.8125C78.6641 44.6562 76.5625 45.0547 74.25 45.0078C73.125 44.9766 72.0156 44.8047 70.9219 44.4922C69.8281 44.1797 68.8047 43.7188 67.8516 43.1094C66.8984 42.5156 66.0703 41.7734 65.3672 40.8828L68.625 36.9922C69.3125 37.8984 70.125 38.6016 71.0625 39.1016C72 39.6172 73.0391 39.8906 74.1797 39.9219C75.3984 39.9531 76.4766 39.7344 77.4141 39.2656C78.3516 38.7969 79.125 38.1328 79.7344 37.2734C80.3438 36.4141 80.75 35.3906 80.9531 34.2031L84.1875 15.1719L85.7344 9.64062ZM67.0078 22.7891L67.0781 22.2969C67.2656 20.7031 67.6406 19.125 68.2031 17.5625C68.7656 15.9844 69.5234 14.5547 70.4766 13.2734C71.4297 11.9922 72.5938 10.9766 73.9688 10.2266C75.3438 9.47656 76.9453 9.125 78.7734 9.17188C80.4609 9.21875 81.8281 9.64062 82.875 10.4375C83.9219 11.2188 84.7188 12.2422 85.2656 13.5078C85.8125 14.7578 86.1719 16.1172 86.3438 17.5859C86.5312 19.0547 86.5938 20.4844 86.5312 21.875L86.4141 22.9766C86.1641 24.3828 85.75 25.8281 85.1719 27.3125C84.5938 28.7969 83.8438 30.1719 82.9219 31.4375C82 32.6875 80.8906 33.6875 79.5938 34.4375C78.3125 35.1875 76.8516 35.5391 75.2109 35.4922C73.5078 35.4453 72.0938 35.0312 70.9688 34.25C69.8594 33.4688 68.9844 32.4609 68.3438 31.2266C67.7188 29.9766 67.3047 28.6172 67.1016 27.1484C66.8984 25.6641 66.8672 24.2109 67.0078 22.7891ZM73.6875 22.2734L73.6172 22.7891C73.5391 23.4922 73.5078 24.2656 73.5234 25.1094C73.5547 25.9375 73.6797 26.7344 73.8984 27.5C74.1328 28.2656 74.5156 28.8984 75.0469 29.3984C75.5781 29.8828 76.3125 30.1406 77.25 30.1719C78.4844 30.2344 79.5391 29.9766 80.4141 29.3984C81.3047 28.8203 82.0156 28.0547 82.5469 27.1016C83.0781 26.1328 83.4453 25.1094 83.6484 24.0312L84.0938 20.9141C84.1562 20.1641 84.1484 19.4141 84.0703 18.6641C83.9922 17.9141 83.8047 17.2266 83.5078 16.6016C83.2266 15.9766 82.8047 15.4688 82.2422 15.0781C81.6953 14.6875 80.9688 14.4844 80.0625 14.4688C79.0156 14.4219 78.1094 14.6406 77.3438 15.125C76.5938 15.6094 75.9688 16.25 75.4688 17.0469C74.9688 17.8281 74.5703 18.6797 74.2734 19.6016C73.9766 20.5234 73.7812 21.4141 73.6875 22.2734Z" fill="#141414"/>
<path d="M102.281 15.4297L98.8828 35H92.2734L96.6797 9.64062H102.867L102.281 15.4297ZM100.336 21.4297L98.6953 21.4766C98.8672 19.9609 99.2109 18.4609 99.7266 16.9766C100.242 15.4922 100.945 14.1562 101.836 12.9688C102.742 11.7656 103.844 10.8203 105.141 10.1328C106.453 9.44531 107.977 9.11719 109.711 9.14844C111.117 9.19531 112.273 9.49219 113.18 10.0391C114.102 10.5703 114.805 11.2891 115.289 12.1953C115.789 13.1016 116.109 14.125 116.25 15.2656C116.406 16.4062 116.422 17.5938 116.297 18.8281L113.578 35H106.945L109.688 18.7578C109.781 17.9297 109.758 17.1953 109.617 16.5547C109.477 15.9141 109.164 15.4062 108.68 15.0312C108.211 14.6562 107.523 14.4609 106.617 14.4453C105.617 14.4141 104.75 14.6016 104.016 15.0078C103.297 15.4141 102.688 15.9609 102.188 16.6484C101.688 17.3359 101.289 18.0938 100.992 18.9219C100.695 19.75 100.477 20.5859 100.336 21.4297Z" fill="#141414"/>
<path d="M119.695 22.7188L119.766 22.2266C119.953 20.4297 120.383 18.7422 121.055 17.1641C121.742 15.5703 122.648 14.1719 123.773 12.9688C124.914 11.75 126.25 10.8047 127.781 10.1328C129.328 9.44531 131.062 9.125 132.984 9.17188C134.812 9.20312 136.391 9.57031 137.719 10.2734C139.047 10.9766 140.133 11.9219 140.977 13.1094C141.836 14.2969 142.438 15.6562 142.781 17.1875C143.141 18.7188 143.242 20.3359 143.086 22.0391L143.039 22.5547C142.836 24.3359 142.383 26.0156 141.68 27.5938C140.992 29.1562 140.078 30.5391 138.938 31.7422C137.812 32.9297 136.477 33.8594 134.93 34.5312C133.383 35.2031 131.664 35.5156 129.773 35.4688C127.977 35.4375 126.406 35.0781 125.062 34.3906C123.719 33.6875 122.625 32.75 121.781 31.5781C120.938 30.3906 120.344 29.0391 120 27.5234C119.656 26.0078 119.555 24.4062 119.695 22.7188ZM126.352 22.2266L126.305 22.7422C126.227 23.4922 126.203 24.2969 126.234 25.1562C126.266 26 126.398 26.8047 126.633 27.5703C126.883 28.3359 127.289 28.9609 127.852 29.4453C128.414 29.9297 129.188 30.1875 130.172 30.2188C131.219 30.25 132.117 30.0391 132.867 29.5859C133.617 29.1328 134.234 28.5234 134.719 27.7578C135.203 26.9766 135.586 26.1328 135.867 25.2266C136.148 24.3047 136.336 23.4062 136.43 22.5312L136.477 22.0391C136.539 21.2891 136.555 20.4844 136.523 19.625C136.508 18.75 136.375 17.9297 136.125 17.1641C135.875 16.3828 135.469 15.7422 134.906 15.2422C134.344 14.7422 133.57 14.4766 132.586 14.4453C131.539 14.3984 130.641 14.6172 129.891 15.1016C129.141 15.5703 128.523 16.1953 128.039 16.9766C127.555 17.7578 127.172 18.6094 126.891 19.5312C126.625 20.4531 126.445 21.3516 126.352 22.2266Z" fill="#141414"/>
</svg>
